<?xml version="1.0" encoding="UTF-8" standalone="no"?>
<!DOCTYPE svg PUBLIC "-//W3C//DTD SVG 1.1//EN"
 "http://www.w3.org/Graphics/SVG/1.1/DTD/svg11.dtd">
<!-- Generated by graphviz version 2.38.0 (20140413.2041)
 -->
<!-- Title: models_diagram Pages: 1 -->
<svg width="521pt" height="202pt"
 viewBox="0.00 0.00 520.50 202.00" xmlns="http://www.w3.org/2000/svg" xmlns:xlink="http://www.w3.org/1999/xlink">
<g id="graph0" class="graph" transform="scale(1 1) rotate(0) translate(4 198)">
<title>models_diagram</title>
<polygon fill="none" stroke="none" points="-4,4 -4,-198 516.5,-198 516.5,4 -4,4"/>
<!-- _diagram_info -->
<g id="node1" class="node"><title>_diagram_info</title>
<text text-anchor="start" x="8" y="-157.6" font-family="Times,serif" font-size="13.00">Models diagram</text>
<text text-anchor="start" x="8" y="-143.6" font-family="Times,serif" font-size="13.00">Date: Nov 09 2016 &#45; 16:24</text>
<text text-anchor="start" x="8" y="-129.6" font-family="Times,serif" font-size="13.00">Migration version: 20161109190703</text>
<text text-anchor="start" x="8" y="-115.6" font-family="Times,serif" font-size="13.00">Generated by RailRoady 1.5.2</text>
<text text-anchor="start" x="8" y="-101.6" font-family="Times,serif" font-size="13.00">http://railroady.prestonlee.com</text>
</g>
<!-- Movie -->
<g id="node2" class="node"><title>Movie</title>
<path fill="none" stroke="black" d="M244.5,-72.5C244.5,-72.5 351.5,-72.5 351.5,-72.5 357.5,-72.5 363.5,-78.5 363.5,-84.5 363.5,-84.5 363.5,-181.5 363.5,-181.5 363.5,-187.5 357.5,-193.5 351.5,-193.5 351.5,-193.5 244.5,-193.5 244.5,-193.5 238.5,-193.5 232.5,-187.5 232.5,-181.5 232.5,-181.5 232.5,-84.5 232.5,-84.5 232.5,-78.5 238.5,-72.5 244.5,-72.5"/>
<text text-anchor="middle" x="298" y="-178.3" font-family="Times,serif" font-size="14.00">Movie</text>
<polyline fill="none" stroke="black" points="232.5,-170.5 363.5,-170.5 "/>
<text text-anchor="start" x="240.5" y="-155.3" font-family="Times,serif" font-size="14.00">id :INTEGER</text>
<text text-anchor="start" x="240.5" y="-140.3" font-family="Times,serif" font-size="14.00">name :varchar</text>
<text text-anchor="start" x="240.5" y="-125.3" font-family="Times,serif" font-size="14.00">date :integer</text>
<text text-anchor="start" x="240.5" y="-110.3" font-family="Times,serif" font-size="14.00">created_at :datetime</text>
<text text-anchor="start" x="240.5" y="-95.3" font-family="Times,serif" font-size="14.00">updated_at :datetime</text>
<text text-anchor="start" x="240.5" y="-80.3" font-family="Times,serif" font-size="14.00">ranking :dataType</text>
</g>
<!-- Review -->
<g id="node4" class="node"><title>Review</title>
<ellipse fill="none" stroke="black" cx="372" cy="-18" rx="37.8943" ry="18"/>
<text text-anchor="middle" x="372" y="-14.3" font-family="Times,serif" font-size="14.00">Review</text>
</g>
<!-- Movie&#45;&gt;Review -->
<g id="edge1" class="edge"><title>Movie&#45;&gt;Review</title>
<path fill="none" stroke="#d4eac8" d="M341.718,-65.2416C346.59,-57.8012 351.302,-50.6065 355.499,-44.197"/>
<ellipse fill="none" stroke="#d4eac8" cx="339.358" cy="-68.8448" rx="4.00002" ry="4.00002"/>
<polygon fill="#d4eac8" stroke="#d4eac8" points="355.761,-43.797 365.004,-37.8965 358.501,-39.6141 361.24,-35.4312 361.24,-35.4312 361.24,-35.4312 358.501,-39.6141 357.475,-32.9658 355.761,-43.797 355.761,-43.797"/>
</g>
<!-- User -->
<g id="node3" class="node"><title>User</title>
<path fill="none" stroke="black" d="M393.5,-80C393.5,-80 500.5,-80 500.5,-80 506.5,-80 512.5,-86 512.5,-92 512.5,-92 512.5,-174 512.5,-174 512.5,-180 506.5,-186 500.5,-186 500.5,-186 393.5,-186 393.5,-186 387.5,-186 381.5,-180 381.5,-174 381.5,-174 381.5,-92 381.5,-92 381.5,-86 387.5,-80 393.5,-80"/>
<text text-anchor="middle" x="447" y="-170.8" font-family="Times,serif" font-size="14.00">User</text>
<polyline fill="none" stroke="black" points="381.5,-163 512.5,-163 "/>
<text text-anchor="start" x="389.5" y="-147.8" font-family="Times,serif" font-size="14.00">id :INTEGER</text>
<text text-anchor="start" x="389.5" y="-132.8" font-family="Times,serif" font-size="14.00">name :varchar</text>
<text text-anchor="start" x="389.5" y="-117.8" font-family="Times,serif" font-size="14.00">email :varchar</text>
<text text-anchor="start" x="389.5" y="-102.8" font-family="Times,serif" font-size="14.00">created_at :datetime</text>
<text text-anchor="start" x="389.5" y="-87.8" font-family="Times,serif" font-size="14.00">updated_at :datetime</text>
</g>
<!-- User&#45;&gt;Review -->
<g id="edge2" class="edge"><title>User&#45;&gt;Review</title>
<path fill="none" stroke="#d62066" d="M407.844,-73.0047C401.027,-62.7334 394.283,-52.5723 388.515,-43.8827"/>
<ellipse fill="none" stroke="#d62066" cx="410.142" cy="-76.4673" rx="4.00002" ry="4.00002"/>
<polygon fill="#d62066" stroke="#d62066" points="388.426,-43.7489 386.646,-32.9285 385.661,-39.5829 382.896,-35.417 382.896,-35.417 382.896,-35.417 385.661,-39.5829 379.147,-37.9055 388.426,-43.7489 388.426,-43.7489"/>
</g>
</g>
</svg>
