<?xml version="1.0" encoding="UTF-8" standalone="no"?>
<!DOCTYPE svg PUBLIC "-//W3C//DTD SVG 1.1//EN"
 "http://www.w3.org/Graphics/SVG/1.1/DTD/svg11.dtd">
<!-- Generated by graphviz version 2.38.0 (20140413.2041)
 -->
<!-- Title: models_diagram Pages: 1 -->
<svg width="381pt" height="158pt"
 viewBox="0.00 0.00 381.30 158.00" xmlns="http://www.w3.org/2000/svg" xmlns:xlink="http://www.w3.org/1999/xlink">
<g id="graph0" class="graph" transform="scale(1 1) rotate(0) translate(4 154)">
<title>models_diagram</title>
<polygon fill="none" stroke="none" points="-4,4 -4,-154 377.298,-154 377.298,4 -4,4"/>
<!-- _diagram_info -->
<g id="node1" class="node"><title>_diagram_info</title>
<text text-anchor="start" x="8" y="-135.6" font-family="Times,serif" font-size="13.00">Models diagram</text>
<text text-anchor="start" x="8" y="-121.6" font-family="Times,serif" font-size="13.00">Date: Nov 09 2016 &#45; 16:24</text>
<text text-anchor="start" x="8" y="-107.6" font-family="Times,serif" font-size="13.00">Migration version: 20161109190703</text>
<text text-anchor="start" x="8" y="-93.6" font-family="Times,serif" font-size="13.00">Generated by RailRoady 1.5.2</text>
<text text-anchor="start" x="8" y="-79.6" font-family="Times,serif" font-size="13.00">http://railroady.prestonlee.com</text>
</g>
<!-- Movie -->
<g id="node2" class="node"><title>Movie</title>
<ellipse fill="none" stroke="black" cx="266" cy="-111" rx="34.394" ry="18"/>
<text text-anchor="middle" x="266" y="-107.3" font-family="Times,serif" font-size="14.00">Movie</text>
</g>
<!-- Review -->
<g id="node4" class="node"><title>Review</title>
<ellipse fill="none" stroke="black" cx="306" cy="-18" rx="37.8943" ry="18"/>
<text text-anchor="middle" x="306" y="-14.3" font-family="Times,serif" font-size="14.00">Review</text>
</g>
<!-- Movie&#45;&gt;Review -->
<g id="edge1" class="edge"><title>Movie&#45;&gt;Review</title>
<path fill="none" stroke="#a18b6a" d="M276.561,-85.9739C282.084,-73.4092 288.853,-58.0096 294.507,-45.1464"/>
<ellipse fill="none" stroke="#a18b6a" cx="274.946" cy="-89.6473" rx="4.00002" ry="4.00002"/>
<polygon fill="#a18b6a" stroke="#a18b6a" points="294.55,-45.0478 302.694,-37.704 296.562,-40.4705 298.574,-35.8932 298.574,-35.8932 298.574,-35.8932 296.562,-40.4705 294.455,-34.0823 294.55,-45.0478 294.55,-45.0478"/>
</g>
<!-- User -->
<g id="node3" class="node"><title>User</title>
<ellipse fill="none" stroke="black" cx="346" cy="-111" rx="27.0966" ry="18"/>
<text text-anchor="middle" x="346" y="-107.3" font-family="Times,serif" font-size="14.00">User</text>
</g>
<!-- User&#45;&gt;Review -->
<g id="edge2" class="edge"><title>User&#45;&gt;Review</title>
<path fill="none" stroke="#1d8e3d" d="M335.439,-85.9739C329.916,-73.4092 323.147,-58.0096 317.493,-45.1464"/>
<ellipse fill="none" stroke="#1d8e3d" cx="337.054" cy="-89.6473" rx="4.00002" ry="4.00002"/>
<polygon fill="#1d8e3d" stroke="#1d8e3d" points="317.45,-45.0478 317.545,-34.0823 315.438,-40.4705 313.426,-35.8932 313.426,-35.8932 313.426,-35.8932 315.438,-40.4705 309.306,-37.704 317.45,-45.0478 317.45,-45.0478"/>
</g>
</g>
</svg>
